<?xml version="1.0" encoding="UTF-8"?>
<svg xmlns="http://www.w3.org/2000/svg" width="433" height="98" viewBox="0 0 433 98">
   <g transform="matrix(2.625,0,0,2.625,0,7)" featurekey="symbol1" fill="#00d1b2">
      <g>
         <g display="none">
            <rect x="-69.333" y="-18.667" width="473.33" height="236" display="inline" />
         </g>
         <g display="none">
            <g display="inline">
               <polygon points="32 15.976 15.976 32 0 16.024" />
               <polygon points="23.347 15.989 15.989 23.347 8.653 16.011" />
               <polygon points="0 16.024 16.024 0 32 15.976" />
               <polygon points="8.653 16.011 16.011 8.653 23.347 15.989" />
            </g>
         </g>
         <g display="none">
            <g display="inline">
               <path d="m16 1c8.271 0 15 6.729 15 15s-6.729 15-15 15-15-6.729-15-15 6.729-15 15-15m0-1c-8.837 0-16 7.163-16 16s7.163 16 16 16 16-7.163 16-16-7.163-16-16-16z" />
            </g>
            <g display="inline">
               <path d="m13.034 6.153l2.259 2.259 0.707 0.707 0.707-0.707 2.259-2.259 0.744 0.744-2.259 2.259-0.707 0.707 0.707 0.707 2.259 2.259-0.744 0.744-2.259-2.259-0.707-0.707-0.707 0.707-2.259 2.259-0.744-0.744 2.259-2.259 0.707-0.707-0.707-0.707-2.259-2.259 0.744-0.744m5.932-1.415l-2.966 2.967-2.966-2.966-2.158 2.158 2.966 2.966-2.966 2.966 2.158 2.158 2.966-2.966 2.966 2.966 2.158-2.158-2.966-2.966 2.966-2.966-2.158-2.159z" />
            </g>
            <g display="inline">
               <path d="m13.034 18.427l2.259 2.259 0.707 0.707 0.707-0.707 2.259-2.259 0.744 0.744-2.259 2.259-0.707 0.707 0.707 0.707 2.259 2.259-0.744 0.744-2.259-2.259-0.707-0.707-0.707 0.707-2.259 2.259-0.744-0.744 2.259-2.259 0.707-0.707-0.707-0.707-2.259-2.259 0.744-0.744m5.932-1.414l-2.966 2.966-2.966-2.966-2.158 2.158 2.966 2.966-2.966 2.966 2.158 2.158 2.966-2.966 2.966 2.966 2.158-2.158-2.966-2.966 2.966-2.966-2.158-2.158z" />
            </g>
         </g>
         <g display="none">
            <g display="inline">
               <rect x="2" y="2" width="28" height="28" />
            </g>
            <g display="inline">
               <path d="M16,31.5C7.453,31.5,0.5,24.547,0.5,16S7.453,0.5,16,0.5S31.5,7.453,31.5,16S24.547,31.5,16,31.5z" />
               <path d="m16 1c8.271 0 15 6.729 15 15s-6.729 15-15 15-15-6.729-15-15 6.729-15 15-15m0-1c-8.837 0-16 7.163-16 16s7.163 16 16 16 16-7.163 16-16-7.163-16-16-16z" />
            </g>
            <g display="inline">
               <polygon points="16 11.314 13.034 14.28 11.582 12.829 14.549 9.863 11.582 6.896 13.034 5.445 16 8.412 18.966 5.445 20.418 6.896 17.451 9.863 20.418 12.829 18.966 14.28" />
               <path d="m13.034 6.153l2.259 2.259 0.707 0.707 0.707-0.707 2.259-2.259 0.744 0.744-2.259 2.259-0.707 0.707 0.707 0.707 2.259 2.259-0.744 0.744-2.259-2.259-0.707-0.707-0.707 0.707-2.259 2.259-0.744-0.744 2.259-2.259 0.707-0.707-0.707-0.707-2.259-2.259 0.744-0.744m5.932-1.415l-2.966 2.967-2.966-2.966-2.158 2.158 2.966 2.966-2.966 2.966 2.158 2.158 2.966-2.966 2.966 2.966 2.158-2.158-2.966-2.966 2.966-2.966-2.158-2.159z" />
            </g>
            <g display="inline">
               <polygon points="16 23.589 13.034 26.555 11.582 25.104 14.549 22.137 11.582 19.171 13.034 17.72 16 20.686 18.966 17.72 20.418 19.171 17.451 22.137 20.418 25.104 18.966 26.555" />
               <path d="m13.034 18.427l2.259 2.259 0.707 0.707 0.707-0.707 2.259-2.259 0.744 0.744-2.259 2.259-0.707 0.707 0.707 0.707 2.259 2.259-0.744 0.744-2.259-2.259-0.707-0.707-0.707 0.707-2.259 2.259-0.744-0.744 2.259-2.259 0.707-0.707-0.707-0.707-2.259-2.259 0.744-0.744m5.932-1.414l-2.966 2.966-2.966-2.966-2.158 2.158 2.966 2.966-2.966 2.966 2.158 2.158 2.966-2.966 2.966 2.966 2.158-2.158-2.966-2.966 2.966-2.966-2.158-2.158z" />
            </g>
         </g>
         <g>
            <path d="M0,16.024L15.976,32L32,15.976L16.024,0L0,16.024z M15.989,23.347l-7.336-7.336l14.694-0.022L15.989,23.347z" />
         </g>
      </g>
   </g>
   <g transform="matrix(6.0676 0 0 6.0676 116.93 -57.472)" featurekey="text1">
      <path d="m1.26 24c-0.14 0-0.26-0.12-0.26-0.26v-11.98c0-0.14 0.12-0.26 0.26-0.26h2.6c0.14 0 0.26 0.12 0.26 0.26v9.36h4.5c0.14 0 0.26 0.12 0.26 0.26v2.36c0 0.14-0.12 0.26-0.26 0.26h-7.36zm16.06 0c-1.2 0-2.3-0.28-3.26-0.84-0.98-0.56-1.76-1.36-2.34-2.32-0.56-0.98-0.84-2.1-0.84-3.3 0-1.18 0.28-2.28 0.84-3.26 0.58-0.98 1.34-1.76 2.32-2.32s2.08-0.84 3.28-0.84c1.18 0 2.28 0.28 3.26 0.84s1.76 1.34 2.32 2.32c0.58 0.98 0.86 2.08 0.86 3.26 0 1.2-0.28 2.3-0.86 3.28-0.56 0.98-1.34 1.76-2.32 2.34-0.98 0.56-2.08 0.84-3.26 0.84zm0.04-2.88c0.58 0 1.12-0.16 1.6-0.46 0.5-0.32 0.9-0.74 1.18-1.3 0.3-0.54 0.44-1.16 0.44-1.82 0-0.64-0.14-1.26-0.44-1.8-0.28-0.54-0.68-0.96-1.18-1.28-0.48-0.3-1.02-0.46-1.6-0.46-0.6 0-1.14 0.16-1.64 0.46-0.52 0.32-0.92 0.74-1.22 1.28-0.3 0.56-0.44 1.16-0.44 1.8 0 0.66 0.14 1.28 0.44 1.82 0.32 0.54 0.72 0.98 1.22 1.28 0.5 0.32 1.04 0.48 1.64 0.48zm14.78 2.88c-1.18 0-2.28-0.28-3.24-0.84-0.98-0.58-1.74-1.36-2.3-2.32-0.56-0.98-0.84-2.1-0.84-3.3s0.28-2.3 0.86-3.26c0.56-0.98 1.36-1.76 2.34-2.32 1-0.56 2.12-0.84 3.34-0.84 0.88 0 1.74 0.16 2.6 0.5 0.84 0.32 1.58 0.78 2.18 1.36 0.1 0.08 0.12 0.22 0.04 0.34l-1.46 1.92c-0.06 0.06-0.12 0.1-0.2 0.12-0.06 0-0.14-0.04-0.2-0.08-0.4-0.4-0.86-0.72-1.4-0.94-0.52-0.22-1.04-0.34-1.56-0.34-0.62 0-1.2 0.16-1.7 0.46-0.52 0.32-0.92 0.74-1.22 1.28s-0.44 1.14-0.44 1.8 0.14 1.28 0.44 1.82 0.72 0.98 1.22 1.3c0.52 0.3 1.1 0.46 1.7 0.46 0.32 0 0.66-0.06 1.04-0.16 0.32-0.1 0.66-0.24 0.96-0.4v-0.92h-1.38c-0.08 0-0.14-0.02-0.18-0.08-0.06-0.04-0.08-0.1-0.08-0.18l0.02-2.24c0-0.14 0.12-0.26 0.26-0.26h3.88c0.14 0 0.26 0.12 0.26 0.26v5.02c0 0.08-0.04 0.16-0.12 0.22-0.62 0.48-1.38 0.88-2.26 1.16-0.88 0.3-1.74 0.46-2.56 0.46zm13.46 0c-1.2 0-2.3-0.28-3.26-0.84-0.98-0.56-1.76-1.36-2.34-2.32-0.56-0.98-0.84-2.1-0.84-3.3 0-1.18 0.28-2.28 0.84-3.26 0.58-0.98 1.34-1.76 2.32-2.32s2.08-0.84 3.28-0.84c1.18 0 2.28 0.28 3.26 0.84s1.76 1.34 2.32 2.32c0.58 0.98 0.86 2.08 0.86 3.26 0 1.2-0.28 2.3-0.86 3.28-0.56 0.98-1.34 1.76-2.32 2.34-0.98 0.56-2.08 0.84-3.26 0.84zm0.04-2.88c0.58 0 1.12-0.16 1.6-0.46 0.5-0.32 0.9-0.74 1.18-1.3 0.3-0.54 0.44-1.16 0.44-1.82 0-0.64-0.14-1.26-0.44-1.8-0.28-0.54-0.68-0.96-1.18-1.28-0.48-0.3-1.02-0.46-1.6-0.46-0.6 0-1.14 0.16-1.64 0.46-0.52 0.32-0.92 0.74-1.22 1.28-0.3 0.56-0.44 1.16-0.44 1.8 0 0.66 0.14 1.28 0.44 1.82 0.32 0.54 0.72 0.98 1.22 1.28 0.5 0.32 1.04 0.48 1.64 0.48z" fill="#000"/>
   </g>
</svg>